<?xml version="1.0" encoding="UTF-8" standalone="no"?>
<!DOCTYPE svg PUBLIC "-//W3C//DTD SVG 1.1//EN" "http://www.w3.org/Graphics/SVG/1.1/DTD/svg11.dtd">
<svg version="1.1" xmlns="http://www.w3.org/2000/svg" xmlns:xlink="http://www.w3.org/1999/xlink" preserveAspectRatio="xMidYMid meet" viewBox="0 0 640 640" width="640" height="640"><defs><path d="M181.96 319.93C181.96 396.14 243.86 458.04 320.06 458.04C396.27 458.04 458.17 396.14 458.17 319.93C458.17 243.73 396.27 181.83 320.06 181.83C243.86 181.83 181.96 243.73 181.96 319.93ZM218.06 319.93C218.06 263.65 263.78 217.92 320.06 217.92C376.35 217.92 422.07 263.65 422.07 319.93C422.07 376.22 376.35 421.94 320.06 421.94C263.78 421.94 218.06 376.22 218.06 319.93Z" id="a4xjGl65O1"></path><path d="M556.32 245.2C551.64 230.09 545.62 215.52 538.27 201.61C540.92 197.91 562.1 168.28 564.74 164.58C575.97 148.8 574.23 127.28 560.46 113.64C556.48 109.66 524.61 77.78 520.62 73.8C513.14 66.31 503.24 62.17 492.68 62.17C484.39 62.17 476.5 64.71 469.82 69.52C466.1 72.17 436.37 93.35 432.65 95.99C418.21 88.37 403.11 82.09 387.46 77.41C386.71 72.97 380.72 37.46 379.98 33.02C376.77 13.91 360.32 0 340.94 0C335.31 0 290.28 0 284.65 0C265.27 0 248.82 13.91 245.61 33.02C244.84 37.57 238.63 73.93 237.86 78.48C222.89 83.16 208.31 89.31 194.41 96.8C190.73 94.15 161.32 72.97 157.64 70.32C150.96 65.51 142.94 62.97 134.65 62.97C124.08 62.97 114.06 67.12 106.7 74.6C102.71 78.59 70.73 110.46 66.73 114.44C53.09 128.08 51.22 149.61 62.45 165.38C65.13 169.14 86.52 199.19 89.19 202.95C81.84 216.99 75.95 231.56 71.41 246.67C66.97 247.42 31.46 253.41 27.02 254.15C7.9 257.36 -6 273.81 -6 293.19C-6 298.82 -6 343.85 -6 349.48C-6 368.86 7.9 385.31 27.02 388.52C31.57 389.29 67.93 395.5 72.48 396.27C77.16 411.25 83.31 425.82 90.79 439.72C88.16 443.39 67.09 472.69 64.46 476.36C53.23 492.13 54.96 513.66 68.74 527.29C72.72 531.28 104.59 563.15 108.58 567.13C116.06 574.62 125.96 578.77 136.52 578.77C144.81 578.77 152.7 576.23 159.38 571.41C163.14 568.74 193.19 547.35 196.95 544.67C210.45 551.76 224.62 557.51 239.2 562.05C239.94 566.55 245.93 602.48 246.68 606.97C249.89 626.09 266.34 640 285.72 640C291.36 640 336.5 640 342.14 640C361.53 640 377.97 626.09 381.18 606.97C381.94 602.48 388.04 566.55 388.8 562.05C403.91 557.37 418.48 551.36 432.38 544C436.09 546.65 465.71 567.83 469.42 570.48C476.1 575.29 484.12 577.83 492.41 577.83C492.41 577.83 492.41 577.83 492.41 577.83C502.98 577.83 512.87 573.68 520.36 566.2C524.34 562.21 556.21 530.34 560.2 526.36C573.83 512.72 575.71 491.2 564.47 475.42C561.83 471.7 540.65 441.97 538 438.25C545.36 424.21 551.51 409.64 556.05 394.67C560.54 393.92 596.48 387.93 600.97 387.18C620.09 383.97 634 367.53 634 348.14C634 342.51 634 297.49 634 291.86C634.26 272.47 620.36 256.03 601.24 252.82C592.26 251.29 560.81 245.96 556.32 245.2ZM595.22 351.62C589.61 352.55 544.69 360.04 539.07 360.98C531.99 362.18 526.37 367.39 524.63 374.21C519.55 393.87 511.8 412.72 501.37 430.23C497.76 436.38 498.03 444 502.17 449.88C505.48 454.54 531.89 491.76 535.2 496.41C536.13 497.75 536 499.75 534.79 500.95C530.81 504.94 498.94 536.81 494.95 540.8C494.02 541.73 493.08 541.87 492.41 541.87C491.61 541.87 490.94 541.6 490.41 541.2C485.77 537.89 448.66 511.48 444.02 508.17C438.27 504.03 430.51 503.76 424.36 507.37C406.85 517.8 388 525.55 368.34 530.64C361.39 532.37 356.18 538.12 355.11 545.07C354.16 550.69 346.57 595.61 345.62 601.23C345.35 602.96 343.88 604.17 342.14 604.17C336.51 604.17 291.48 604.17 285.86 604.17C284.12 604.17 282.65 602.96 282.38 601.23C281.44 595.61 273.96 550.69 273.02 545.07C271.82 537.99 266.6 532.37 259.78 530.64C240.67 525.69 222.22 518.07 204.97 508.17C202.16 506.57 198.95 505.77 195.88 505.77C192.27 505.77 188.53 506.84 185.45 509.11C180.77 512.44 143.34 539.07 138.66 542.4C137.99 542.8 137.32 543.07 136.65 543.07C136.12 543.07 135.05 542.94 134.11 542C130.13 538.02 98.26 506.14 94.27 502.16C93.07 500.95 92.93 499.08 93.87 497.61C97.16 493 123.47 456.1 126.76 451.49C130.9 445.61 131.17 437.85 127.56 431.7C117.13 414.32 109.11 395.47 104.03 375.82C102.16 369 96.54 363.78 89.59 362.58C83.94 361.62 38.69 353.92 33.04 352.96C31.3 352.69 30.1 351.22 30.1 349.48C30.1 343.85 30.1 298.82 30.1 293.19C30.1 291.46 31.3 289.98 33.04 289.72C38.61 288.78 83.21 281.29 88.79 280.36C95.88 279.16 101.62 273.94 103.36 266.99C108.31 247.34 115.93 228.35 126.22 210.84C129.83 204.69 129.43 197.07 125.29 191.32C121.96 186.64 95.33 149.2 92 144.53C91.06 143.19 91.2 141.18 92.4 139.98C96.38 136 128.26 104.12 132.24 100.14C133.18 99.2 134.11 99.07 134.78 99.07C135.58 99.07 136.25 99.34 136.79 99.74C141.4 103.03 178.3 129.34 182.91 132.63C188.79 136.77 196.55 137.04 202.7 133.43C220.08 123 238.93 114.98 258.58 109.9C265.4 108.03 270.61 102.41 271.82 95.46C272.78 89.8 280.48 44.56 281.44 38.91C281.71 37.17 283.18 35.97 284.92 35.97C290.55 35.97 335.58 35.97 341.2 35.97C342.94 35.97 344.41 37.17 344.68 38.91C345.62 44.48 353.1 89.08 354.04 94.66C355.24 101.74 360.46 107.49 367.41 109.23C387.6 114.31 406.85 122.2 424.76 132.76C430.91 136.37 438.53 136.1 444.42 131.96C449.03 128.64 485.93 102.12 490.54 98.8C491.21 98.4 491.88 98.13 492.55 98.13C493.08 98.13 494.15 98.27 495.09 99.2C499.07 103.19 530.94 135.06 534.93 139.04C536.13 140.25 536.27 142.12 535.33 143.59C532.03 148.23 505.61 185.34 502.31 189.98C498.16 195.73 497.89 203.48 501.5 209.63C511.93 227.15 519.69 246 524.77 265.65C526.51 272.6 532.25 277.82 539.21 278.89C544.82 279.84 589.74 287.43 595.36 288.38C597.1 288.65 598.3 290.12 598.3 291.86C598.3 295.61 598.3 314.37 598.3 348.14L598.17 348.14C597.36 350.28 596.38 351.44 595.22 351.62Z" id="c2MeFPJg98"></path></defs><g><g><g><use xlink:href="#a4xjGl65O1" opacity="1" fill="#ff2d2d" fill-opacity="1"></use><g><use xlink:href="#a4xjGl65O1" opacity="1" fill-opacity="0" stroke="#000000" stroke-width="1" stroke-opacity="0"></use></g></g><g><use xlink:href="#c2MeFPJg98" opacity="1" fill="#ff2d2d" fill-opacity="1"></use><g><use xlink:href="#c2MeFPJg98" opacity="1" fill-opacity="0" stroke="#000000" stroke-width="1" stroke-opacity="0"></use></g></g></g></g></svg>